<?xml version="1.0" standalone="no"?>
<!DOCTYPE svg PUBLIC "-//W3C//DTD SVG 20010904//EN"
 "http://www.w3.org/TR/2001/REC-SVG-20010904/DTD/svg10.dtd">
<svg version="1.0" xmlns="http://www.w3.org/2000/svg"
 width="1024.000000pt" height="1024.000000pt" viewBox="0 0 1024.000000 1024.000000"
 preserveAspectRatio="xMidYMid meet">

<g transform="translate(0.000000,1024.000000) scale(0.100000,-0.100000)"
fill="#000000" stroke="none">
<path d="M0 5120 l0 -5120 5120 0 5120 0 0 5120 0 5120 -5120 0 -5120 0 0
-5120z m5183 3597 l229 -222 -231 -228 c-179 -177 -234 -226 -246 -220 -9 5
-114 107 -234 227 l-219 218 226 224 c125 123 232 223 237 223 6 0 113 -100
238 -222z m-948 89 c26 -7 55 -56 55 -91 0 -38 -50 -85 -90 -85 -35 0 -69 15
-87 39 -15 20 -17 76 -2 102 12 23 66 50 89 44 8 -2 24 -6 35 -9z m2004 -20
c8 -6 20 -26 28 -44 36 -86 -52 -161 -136 -117 -71 36 -59 149 19 178 20 7 71
-2 89 -17z m-2319 -86 c44 -44 17 -78 -80 -100 -85 -20 -254 -85 -366 -141
-85 -42 -105 -49 -122 -40 -27 14 -36 45 -22 71 20 38 315 166 495 215 67 18
72 18 95 -5z m-1025 -284 c138 -64 194 -226 121 -350 -51 -86 -122 -127 -222
-128 -257 -1 -348 351 -121 469 78 40 150 43 222 9z m2919 -17 c175 -47 509
-175 688 -265 109 -54 307 -169 363 -209 428 -307 718 -592 967 -950 171 -245
329 -564 437 -878 44 -129 95 -306 89 -312 -2 -2 -153 -1 -336 2 -299 6 -332
8 -332 23 0 9 -15 72 -34 141 l-35 124 -3 547 c-2 301 -6 549 -9 552 -3 3 -52
6 -110 7 l-106 1 -149 147 c-338 334 -629 531 -1039 706 -146 62 -401 146
-550 181 -66 15 -124 31 -128 35 -12 9 30 103 58 129 51 48 104 52 229 19z
m-1556 7 c15 -8 37 -25 48 -38 22 -23 64 -100 64 -116 0 -4 -44 -18 -97 -31
-284 -65 -616 -186 -873 -316 -214 -108 -350 -193 -350 -218 0 -17 85 -126 99
-127 7 0 75 35 150 79 213 123 377 196 626 281 234 79 488 140 500 120 3 -4 1
-40 -4 -79 -15 -119 -46 -149 -192 -186 -187 -47 -457 -149 -646 -243 -65 -33
-198 -90 -294 -127 -96 -36 -256 -99 -355 -140 l-182 -75 -144 0 c-80 0 -186
-3 -236 -6 l-92 -7 0 -538 0 -537 -30 -75 c-16 -41 -40 -111 -52 -156 l-21
-81 -241 0 c-133 0 -285 -3 -340 -7 l-98 -6 7 34 c17 84 81 286 132 414 195
494 452 893 799 1238 223 222 435 386 719 556 269 161 495 258 826 355 161 47
232 55 277 32z m2770 -190 c79 -50 259 -189 285 -218 21 -25 22 -52 1 -72 -26
-27 -47 -19 -147 60 -53 41 -138 103 -189 137 -78 52 -94 67 -96 92 -4 35 22
59 56 50 12 -3 53 -25 90 -49z m-1461 -181 c216 -41 525 -151 764 -271 256
-128 429 -249 757 -530 2 -1 -79 29 -180 67 -100 39 -232 88 -293 110 -60 22
-220 89 -355 148 -244 108 -405 167 -595 217 -55 14 -114 37 -132 50 -37 28
-60 85 -67 167 -5 66 -11 63 101 42z m-552 -261 c356 -149 756 -286 1275 -434
102 -29 160 -52 196 -76 54 -36 190 -171 182 -180 -11 -11 -699 169 -968 253
-201 62 -635 224 -720 268 -25 13 -33 11 -101 -21 -330 -158 -961 -363 -1506
-489 l-142 -32 20 26 c35 45 190 175 238 201 13 7 112 38 220 70 500 147 914
293 1151 404 41 19 80 35 85 35 6 0 37 -11 70 -25z m2939 -345 c32 -25 36 -77
7 -103 -48 -43 -136 12 -115 71 9 26 45 53 70 53 6 0 23 -9 38 -21z m-2900
-113 c335 -143 814 -291 1431 -442 470 -115 505 -125 505 -135 0 -11 -19 -21
-221 -115 l-176 -82 -109 24 c-709 154 -1048 254 -1506 447 -24 10 -37 7 -101
-26 -300 -148 -757 -294 -1602 -513 -77 -20 -152 -41 -167 -46 l-28 -10 0
-102 c0 -291 52 -808 116 -1154 13 -74 51 -249 83 -390 33 -142 71 -311 85
-377 65 -306 95 -459 93 -462 -6 -5 -101 160 -163 284 -197 388 -316 851 -364
1413 -12 138 -29 691 -30 950 l0 165 253 59 c296 69 677 166 902 231 302 87
728 239 852 304 21 11 39 20 41 21 1 0 49 -20 106 -44z m-2024 -335 c-8 -5
-91 -32 -185 -61 -93 -28 -173 -55 -177 -58 -9 -10 9 -979 22 -1162 55 -777
210 -1328 521 -1853 340 -573 920 -1078 1670 -1455 l66 -34 109 55 c371 186
751 449 1047 726 594 553 951 1260 1077 2131 29 201 41 477 47 1026 l6 571
-149 47 c-251 79 -252 75 11 75 127 1 247 -2 268 -6 l38 -6 -4 -676 c-5 -786
-13 -914 -82 -1321 -85 -505 -301 -1045 -589 -1470 -159 -235 -399 -499 -624
-688 -290 -243 -705 -478 -1087 -615 l-70 -25 -165 68 c-214 87 -348 151 -495
235 -620 355 -1088 858 -1382 1485 -203 432 -328 918 -378 1463 -16 168 -43
1512 -32 1542 6 13 42 15 279 15 159 0 267 -4 258 -9z m5335 -15 c73 -31 86
-137 22 -176 -18 -11 -46 -20 -64 -20 -39 0 -89 40 -98 79 -9 44 18 99 57 116
42 18 42 18 83 1z m-6729 -110 c53 -53 42 -121 -23 -155 -36 -18 -71 -13 -105
18 -27 24 -33 36 -33 71 0 35 6 47 33 71 45 40 84 39 128 -5z m3318 -155 c4
-5 1 -11 -4 -13 -7 -2 -10 -246 -10 -753 l0 -750 -125 -125 -125 -125 -62 61
c-266 256 -479 456 -483 453 -104 -96 -535 -525 -535 -532 0 -6 7 -18 15 -27
13 -14 12 -16 -4 -16 -12 0 -17 6 -14 16 3 10 -1 9 -11 -4 -9 -11 -16 -15 -16
-9 0 7 5 15 10 18 6 3 10 10 10 16 0 5 -4 9 -10 9 -5 0 -10 -6 -10 -14 0 -7
-7 -19 -15 -26 -9 -8 -13 -21 -9 -36 6 -23 -6 -31 -39 -25 -5 1 -6 -7 -2 -18
3 -11 8 -28 10 -39 2 -11 8 -37 14 -57 20 -74 -6 -19 -32 65 -108 355 -187
919 -187 1323 l0 112 408 114 c404 114 906 273 1097 349 109 44 121 47 129 33z
m61 -29 c-3 -3 -11 0 -18 7 -9 10 -8 11 6 5 10 -3 15 -9 12 -12z m42 -8 c-3
-3 -12 -4 -19 -1 -8 3 -5 6 6 6 11 1 17 -2 13 -5z m123 -42 c3 -3 -8 -2 -25 2
-16 4 -34 12 -40 17 -5 5 6 4 25 -2 19 -7 37 -14 40 -17z m77 -29 c-7 -7 -57
8 -57 18 0 4 14 3 31 -3 16 -6 28 -12 26 -15z m158 -43 c3 -5 2 -10 -4 -10 -5
0 -13 5 -16 10 -3 6 -2 10 4 10 5 0 13 -4 16 -10z m104 -26 c10 -9 -35 -3 -49
6 -11 8 -7 9 15 4 17 -4 32 -8 34 -10z m221 -59 c19 -7 28 -13 20 -13 -8 0
-31 6 -50 13 -19 7 -28 13 -20 13 8 0 31 -6 50 -13z m128 -30 c2 -1 -3 -5 -10
-7 -7 -3 -26 1 -43 9 l-30 13 40 -6 c22 -4 41 -8 43 -9z m49 -11 c-3 -3 -12
-4 -19 -1 -8 3 -5 6 6 6 11 1 17 -2 13 -5z m138 -30 c44 -9 82 -18 84 -20 4
-4 -25 -34 -34 -34 -3 0 -3 5 0 10 3 6 -1 10 -10 10 -9 0 -14 4 -11 9 4 5 -3
7 -14 4 -11 -3 -27 1 -36 8 -13 10 -17 10 -25 -2 -5 -8 -9 -9 -9 -2 0 6 -13
16 -30 22 -32 11 -42 26 -12 17 9 -2 53 -12 97 -22z m15 -99 c-19 -19 -40 -35
-48 -35 -11 0 -9 5 6 19 12 10 18 21 15 25 -4 4 1 4 11 0 15 -6 17 -4 11 6 -5
8 -4 11 3 6 6 -3 13 -2 17 4 3 5 9 10 13 10 3 0 -9 -16 -28 -35z m677 -137
c68 -68 123 -128 123 -134 0 -6 -39 -48 -87 -94 -128 -122 -334 -323 -808
-785 -231 -226 -562 -549 -736 -719 l-316 -308 3 -307 c3 -313 0 -379 -18
-348 -5 9 -17 17 -26 17 -10 0 -22 4 -27 9 -6 5 -30 20 -55 33 -25 14 -61 34
-80 45 -19 11 -57 32 -85 47 -44 25 -86 53 -135 93 -139 111 -227 193 -335
313 -62 69 -198 260 -238 335 -65 121 -128 266 -139 318 -6 34 -19 71 -27 82
-9 11 -12 16 -6 12 5 -4 92 75 196 179 l188 188 133 -126 c73 -68 189 -178
258 -242 69 -65 135 -125 148 -134 23 -15 27 -12 195 154 576 566 1394 1365
1482 1447 l50 47 110 0 110 0 122 -122z m-847 -24 c-124 -121 -134 -130 -105
-94 11 14 26 29 33 33 6 4 12 15 12 24 0 9 3 13 7 10 3 -4 15 0 25 10 20 18
25 38 6 27 -7 -4 -8 -3 -4 4 4 6 13 9 21 6 9 -4 18 3 24 17 5 13 10 20 10 15
1 -12 41 24 41 37 0 6 -8 2 -19 -7 -16 -15 -19 -15 -24 -2 -4 9 -1 18 5 22 7
4 8 3 4 -4 -4 -7 -3 -12 3 -12 5 0 12 4 16 10 3 5 12 7 19 4 8 -3 17 0 21 6 4
6 9 9 11 7 3 -3 -45 -54 -106 -113z m-130 -127 c0 -2 -17 -19 -37 -38 -22 -20
-30 -24 -18 -9 25 31 55 57 55 47z m-80 -80 c0 -2 -17 -19 -37 -38 -22 -20
-30 -24 -18 -9 25 31 55 57 55 47z m-110 -110 c0 -2 -10 -12 -22 -23 l-23 -19
19 23 c18 21 26 27 26 19z m-222 -222 c-80 -80 -148 -142 -151 -138 -4 3 5 14
18 25 14 11 23 24 20 29 -4 5 0 6 8 3 14 -5 74 63 69 79 -1 5 2 6 8 2 15 -9
42 15 36 32 -3 8 -1 11 4 8 6 -4 30 14 55 38 34 34 41 47 32 56 -9 9 -8 11 4
6 10 -4 20 -1 24 5 4 6 10 9 13 5 3 -3 -59 -71 -140 -150z m-3206 -65 l-4 -50
-446 2 c-294 2 -445 6 -442 13 3 6 41 27 85 47 l80 38 365 0 365 0 -3 -50z
m6374 8 c52 -23 91 -45 86 -50 -9 -9 -868 -12 -882 -3 -6 3 -10 26 -10 51 l0
44 356 0 356 0 94 -42z m13 -86 c-13 -10 -50 -35 -81 -55 l-56 -37 -294 0
c-228 1 -297 4 -310 14 -26 19 -22 30 4 12 19 -14 66 -16 316 -16 168 0 291 4
288 9 -3 5 4 11 15 14 12 3 18 10 14 16 -9 15 -28 14 -19 -1 4 -7 3 -9 -1 -5
-19 17 -12 33 14 32 16 0 25 -6 23 -14 -1 -7 3 -11 10 -8 7 2 12 9 11 15 -2 6
4 9 12 6 7 -3 22 4 32 15 9 12 24 21 32 21 8 0 4 -7 -10 -18z m-7106 -46 c9 5
9 4 1 -5 -9 -9 -19 -7 -48 9 -20 12 -36 24 -36 27 0 3 16 -5 36 -16 19 -12 41
-18 47 -15z m3762 26 c-53 -42 -60 -46 -33 -19 16 15 31 27 35 27 4 0 3 -3 -2
-8z m2565 -17 c14 -19 14 -19 -2 -6 -10 7 -18 18 -18 24 0 6 1 8 3 6 1 -2 9
-13 17 -24z m-5641 6 c11 -7 4 -15 -27 -35 l-42 -26 -279 0 c-228 0 -284 3
-307 15 -16 8 -22 15 -13 15 8 0 20 -5 26 -11 7 -7 99 -10 293 -7 l283 3 20
28 c23 30 26 31 46 18z m6234 -28 c-7 -2 -19 -2 -25 0 -7 3 -2 5 12 5 14 0 19
-2 13 -5z m-3273 -68 c-25 -26 -40 -32 -40 -14 0 5 4 8 9 5 4 -3 16 3 26 14
10 11 20 20 23 20 3 0 -5 -11 -18 -25z m-3661 -287 c1 -17 22 -18 284 -18 274
0 283 -1 322 -23 21 -12 53 -42 70 -65 26 -38 30 -52 30 -111 0 -58 -4 -74
-28 -108 -15 -22 -46 -50 -68 -63 -47 -26 -74 -28 -406 -29 l-213 -1 0 -146 0
-146 -151 143 c-83 79 -201 192 -262 251 l-112 106 31 29 c111 102 406 364
444 395 l45 36 6 -116 c4 -65 7 -125 8 -134z m3606 222 c-10 -11 -24 -20 -32
-20 -8 0 -11 -5 -7 -12 4 -6 3 -8 -4 -4 -6 3 -15 -2 -21 -11 -6 -10 -11 -14
-11 -9 0 5 7 18 16 28 14 15 15 20 3 35 -12 14 -11 14 14 -2 26 -17 27 -17 20
0 -5 14 -3 17 10 12 10 -4 17 -2 17 5 0 6 3 8 7 5 3 -4 -2 -16 -12 -27z m3749
-245 c113 -99 205 -185 205 -191 1 -6 -68 -75 -151 -154 -84 -79 -201 -190
-260 -247 l-108 -104 0 145 0 145 -273 -1 c-308 -1 -329 2 -381 63 -83 98 -68
228 36 296 l42 28 288 -3 288 -3 0 151 0 152 55 -48 c30 -27 147 -130 259
-229z m-5096 -182 c15 -15 19 -20 9 -13 -16 12 -20 12 -29 -1 -8 -11 -9 -11
-4 3 3 10 1 20 -4 23 -6 4 -10 1 -10 -6 0 -7 -3 -10 -6 -6 -6 6 3 27 12 27 3
0 17 -12 32 -27z m-107 -188 c5 4 6 -1 3 -10 -4 -9 -2 -26 4 -38 20 -44 35
-88 30 -93 -6 -5 -59 135 -57 151 0 6 3 4 6 -3 2 -6 9 -10 14 -7z m26 -7 c-3
-8 -6 -5 -6 6 -1 11 2 17 5 13 3 -3 4 -12 1 -19z m42 -161 c8 -10 7 -14 -2
-14 -8 0 -14 6 -14 14 0 7 1 13 2 13 2 0 8 -6 14 -13z m28 -61 c-3 -7 4 -29
16 -47 22 -35 31 -73 15 -63 -4 3 -5 10 -2 16 4 6 3 13 -2 17 -31 21 -51 91
-27 91 3 0 3 -6 0 -14z m-1972 -105 c77 -35 116 -97 117 -182 0 -93 -63 -169
-158 -190 -123 -28 -234 64 -234 193 1 142 148 238 275 179z m560 0 c185 -84
149 -346 -52 -377 -117 -17 -217 73 -217 196 0 146 140 240 269 181z m6085 -9
c79 -47 114 -110 108 -193 -7 -101 -73 -167 -175 -176 -47 -4 -66 0 -103 19
-164 85 -134 328 44 368 40 9 95 1 126 -18z m-650 8 c-8 -5 -31 -12 -51 -15
-19 -3 -48 -18 -63 -32 -15 -14 -30 -23 -32 -20 -16 15 96 73 146 76 13 1 13
0 0 -9z m126 -41 c22 -17 47 -45 56 -62 19 -35 23 -112 9 -149 -16 -40 -75
-98 -107 -104 -16 -3 -33 -9 -38 -15 -13 -12 -56 -12 -56 1 0 6 11 8 25 4 15
-4 25 -2 25 5 0 6 9 11 19 11 14 0 19 6 16 19 -3 14 1 18 12 14 12 -5 12 -7 1
-14 -9 -6 -6 -9 10 -9 13 0 21 4 17 9 -3 5 4 12 15 16 25 8 34 42 26 98 -3 23
-2 49 4 57 7 11 9 8 9 -15 -1 -52 3 -86 9 -80 3 3 5 28 3 55 -2 50 -23 105
-35 93 -3 -3 -17 4 -31 17 -23 22 -23 24 -7 36 21 16 8 18 -21 3 -18 -9 -20
-9 -9 2 16 17 16 34 -1 20 -10 -8 -14 -7 -14 4 0 23 21 18 63 -16z m-76 1 c0
-5 -5 -10 -11 -10 -5 0 -7 5 -4 10 3 6 8 10 11 10 2 0 4 -4 4 -10z m-3992 -12
c-3 -7 4 -22 14 -33 20 -20 70 -117 64 -122 -2 -2 -14 18 -27 44 -13 26 -34
58 -46 72 -12 13 -19 30 -16 37 6 17 16 19 11 2z m3784 -51 c-18 -22 -17 -132
1 -161 9 -14 17 -29 17 -34 0 -5 11 -15 25 -22 14 -7 25 -17 25 -21 0 -5 16
-11 35 -15 19 -3 35 -10 35 -15 0 -4 -15 -3 -32 3 -84 29 -138 102 -138 187 0
54 13 91 32 91 7 0 7 -4 0 -13z m-3665 -144 c0 -9 -4 -10 -14 -2 -7 6 -13 12
-13 14 0 1 6 2 13 2 8 0 14 -6 14 -14z m43 -17 c0 -2 -6 -9 -14 -15 -11 -9
-16 -9 -22 0 -4 7 -3 9 4 5 6 -3 13 -2 17 4 6 10 15 14 15 6z m3 -49 c57 -61
62 -79 7 -22 -19 19 -30 35 -26 35 4 0 13 -6 19 -13z m3757 -1 c0 -3 -4 -8
-10 -11 -5 -3 -10 -1 -10 4 0 6 5 11 10 11 6 0 10 -2 10 -4z m-3673 -101 c8
-9 13 -18 11 -21 -3 -2 -13 5 -23 16 -21 23 -11 27 12 5z m-2310 -187 c-3 -8
-6 -5 -6 6 -1 11 2 17 5 13 3 -3 4 -12 1 -19z m867 -98 c64 -131 193 -332 284
-444 79 -97 281 -299 375 -376 254 -204 557 -360 937 -481 91 -28 179 -62 195
-74 38 -28 71 -95 80 -162 l7 -53 -32 0 c-51 0 -251 48 -381 91 -394 130 -749
324 -1007 549 l-93 81 -47 -35 c-76 -56 -87 -71 -72 -103 13 -31 142 -143 270
-234 200 -144 477 -288 750 -392 158 -60 225 -81 422 -132 72 -19 132 -35 133
-37 8 -8 -42 -112 -57 -122 -38 -23 -318 46 -618 152 -416 147 -813 378 -1123
654 -80 72 -107 86 -107 56 0 -5 7 -7 16 -4 11 4 15 2 11 -8 -3 -8 5 -23 17
-35 25 -23 41 -28 30 -8 -4 7 -3 9 2 4 5 -5 9 -12 9 -15 1 -16 17 -32 28 -26
8 5 8 2 -1 -7 -10 -11 -30 4 -117 91 -57 57 -103 108 -102 114 1 5 -3 10 -10
11 -31 1 -330 365 -317 386 3 5 1 9 -4 9 -15 0 -104 144 -93 148 19 6 26 2 27
-18 3 -38 4 -41 14 -35 5 3 7 0 5 -8 -3 -7 3 -22 15 -32 11 -10 20 -25 20 -33
0 -12 3 -12 15 -2 13 11 14 10 9 -5 -5 -13 -4 -16 4 -11 8 4 10 2 6 -7 -3 -8
1 -21 8 -28 7 -8 19 -27 26 -42 6 -15 19 -30 27 -33 8 -4 15 -12 15 -18 0 -7
19 -31 43 -54 63 -62 81 -83 112 -129 15 -24 32 -40 36 -37 5 3 9 2 8 -3 -3
-19 2 -33 12 -33 5 0 7 6 3 13 -4 6 2 3 14 -7 12 -11 21 -26 20 -35 -2 -9 3
-15 10 -13 8 1 11 -2 6 -9 -5 -9 -2 -10 9 -6 11 4 14 2 11 -8 -3 -8 1 -12 13
-12 12 1 18 -5 18 -18 0 -11 6 -20 14 -20 28 0 21 23 -16 56 -43 38 -171 181
-254 284 -170 212 -359 535 -443 758 l-25 67 387 0 387 0 59 -120z m1636 83
c0 -7 -39 17 -46 28 -3 6 5 3 20 -6 14 -10 26 -19 26 -22z m3393 27 c-13 -5
-23 -17 -23 -26 0 -41 -149 -318 -248 -459 -20 -27 -45 -63 -56 -80 -12 -16
-23 -32 -26 -35 -3 -3 -18 -23 -34 -44 -66 -88 -310 -346 -327 -346 -4 0 -14
7 -23 15 -8 8 -22 15 -30 15 -9 0 -16 7 -16 15 0 8 5 15 11 15 5 0 7 5 4 10
-3 6 -3 16 2 23 12 20 15 57 3 57 -19 0 -25 -5 -22 -20 2 -12 1 -13 -6 -1 -8
11 -14 8 -28 -15 -10 -16 -19 -30 -20 -32 -1 -2 -8 -4 -16 -6 -7 -1 -37 -19
-65 -41 -38 -28 -49 -42 -40 -48 8 -6 7 -7 -5 -4 -9 3 -22 -1 -28 -9 -7 -8
-19 -14 -26 -14 -8 0 -14 -4 -14 -10 0 -5 6 -7 14 -4 8 3 17 0 21 -6 4 -7 0
-10 -11 -8 -11 2 -18 -2 -16 -10 2 -10 -2 -10 -19 -1 -13 6 -24 7 -28 2 -3 -5
-14 -12 -24 -16 -10 -4 -16 -11 -13 -16 3 -5 -2 -8 -11 -7 -10 0 -18 -5 -18
-13 0 -8 -5 -16 -11 -18 -6 -2 -11 3 -11 12 0 8 21 29 46 45 98 64 204 145
306 236 45 40 86 70 90 66 5 -4 5 -2 2 4 -6 10 57 80 78 86 5 2 9 8 7 13 -1 6
17 29 40 50 23 22 36 31 28 20 -14 -18 -14 -19 2 -7 9 8 15 19 12 26 -2 6 3
21 13 31 10 11 31 39 47 63 16 23 33 42 37 42 5 0 9 5 9 11 0 5 18 36 39 67
45 67 115 194 167 305 l37 77 111 -1 c77 0 104 -3 89 -9z m205 3 c-27 -2 -69
-2 -95 0 -27 2 -5 3 47 3 52 0 74 -1 48 -3z m195 0 c-13 -2 -35 -2 -50 0 -16
2 -5 4 22 4 28 0 40 -2 28 -4z m211 -20 c-4 -16 -22 -59 -40 -98 -27 -60 -31
-65 -29 -35 2 19 5 35 6 35 1 0 3 24 4 53 2 42 -1 52 -14 52 -9 0 -23 5 -31
10 -11 7 4 10 48 10 l62 0 -6 -27z m-6470 -65 c13 -29 31 -72 41 -95 10 -23
21 -40 25 -38 4 3 7 -1 7 -8 -1 -6 9 -36 22 -65 17 -39 27 -50 33 -40 6 9 7 6
3 -8 -3 -12 2 -31 13 -45 10 -13 26 -43 37 -67 13 -30 21 -39 27 -30 5 9 8 10
8 1 0 -29 -20 -20 -43 20 -71 121 -215 427 -201 427 3 0 15 -24 28 -52z m2481
32 c3 -6 -1 -7 -9 -4 -18 7 -21 14 -7 14 6 0 13 -4 16 -10z m65 -56 c0 -2 -9
0 -20 6 -11 6 -20 13 -20 16 0 2 9 0 20 -6 11 -6 20 -13 20 -16z m3821 -81
c-12 -20 -14 -14 -5 12 4 9 9 14 11 11 3 -2 0 -13 -6 -23z m29 -8 c0 -13 -32
-66 -37 -62 -2 3 3 16 11 29 9 14 13 28 9 31 -3 4 -1 7 5 7 7 0 12 -2 12 -5z
m-6726 -31 c36 -35 6 -104 -45 -104 -19 0 -44 27 -51 57 -13 51 58 85 96 47z
m3047 -21 c13 -16 12 -17 -3 -4 -10 7 -18 15 -18 17 0 8 8 3 21 -13z m3632
-50 c-3 -7 -6 -13 -8 -13 -2 0 -5 6 -8 13 -3 8 1 14 8 14 7 0 11 -6 8 -14z
m-42 -76 c-10 -9 -11 -8 -5 6 3 10 9 15 12 12 3 -3 0 -11 -7 -18z m-3114 -39
c-3 -7 -5 -2 -5 12 0 14 2 19 5 13 2 -7 2 -19 0 -25z m-237 18 c0 -3 -4 -8
-10 -11 -5 -3 -10 -1 -10 4 0 6 5 11 10 11 6 0 10 -2 10 -4z m3327 -18 c-3 -8
-6 -5 -6 6 -1 11 2 17 5 13 3 -3 4 -12 1 -19z m-3290 -13 c0 -8 -4 -12 -9 -9
-5 3 -6 10 -3 15 9 13 12 11 12 -6z m3271 -25 c-7 -10 -14 -17 -17 -15 -4 4
18 35 25 35 2 0 -1 -9 -8 -20z m505 -18 c53 -55 27 -144 -46 -163 -94 -23
-158 92 -90 163 21 22 36 28 68 28 32 0 47 -6 68 -28z m-3573 -9 c0 -21 -3
-24 -9 -14 -5 8 -7 20 -4 28 8 21 13 15 13 -14z m3026 -35 c-18 -26 -22 -17
-5 14 6 11 13 17 16 15 3 -3 -2 -16 -11 -29z m-6477 -32 c29 -15 51 -53 51
-87 0 -30 -53 -79 -85 -79 -87 0 -126 90 -66 151 33 32 58 36 100 15z m6433
-38 c-7 -7 -12 -8 -12 -2 0 14 12 26 19 19 2 -3 -1 -11 -7 -17z m-28 -54 c-19
-28 -20 -28 -30 -12 -4 6 -3 8 3 5 11 -7 28 20 24 36 -1 5 3 6 9 2 6 -4 4 -15
-6 -31z m-24 -38 c0 -2 -8 -10 -17 -17 -16 -13 -17 -12 -4 4 13 16 21 21 21
13z m-46 -56 c-5 -5 -10 3 -11 18 -1 22 0 24 9 8 6 -10 6 -22 2 -26z m-44 -64
c0 -2 -8 -10 -17 -17 -16 -13 -17 -12 -4 4 13 16 21 21 21 13z m-75 -96 c-10
-11 -22 -20 -28 -20 -5 0 1 9 14 20 31 25 37 25 14 0z m-25 -33 c0 -2 -15 -16
-32 -33 l-33 -29 29 33 c28 30 36 37 36 29z m-825 -91 c-32 -14 -41 -13 -30 3
3 6 18 11 33 11 l27 -1 -30 -13z m736 -9 c-10 -9 -11 -8 -5 6 3 10 9 15 12 12
3 -3 0 -11 -7 -18z m-31 -7 c6 -11 8 -20 6 -20 -3 0 -10 9 -16 20 -6 11 -8 20
-6 20 3 0 10 -9 16 -20z m564 -31 c28 -33 32 -59 14 -92 -18 -34 -39 -46 -81
-47 -51 0 -87 35 -87 85 0 82 101 117 154 54z m-1269 -25 c-22 -20 -48 -40
-59 -46 -18 -10 -18 -9 0 15 11 14 22 23 27 20 4 -2 17 7 30 21 12 14 27 26
32 25 6 0 -8 -16 -30 -35z m695 14 c0 -2 -42 -43 -93 -93 -50 -49 -77 -74 -59
-54 18 19 30 38 26 41 -3 4 3 9 13 12 11 3 27 22 36 41 9 19 21 36 27 36 5 1
14 2 19 3 5 0 13 4 17 9 7 7 14 9 14 5z m-776 -43 c-10 -8 -23 -14 -29 -14 -5
0 -1 6 9 14 11 8 24 15 30 15 5 0 1 -7 -10 -15z m-351 -21 c-3 -9 -28 -26 -54
-39 -31 -14 -45 -25 -39 -31 7 -7 -2 -10 -23 -10 -20 0 -50 -12 -80 -32 -26
-18 -47 -28 -47 -23 0 6 -7 8 -16 4 -13 -5 -13 -8 -2 -15 10 -7 9 -8 -4 -4
-10 3 -18 1 -18 -4 0 -5 -17 -12 -37 -16 -21 -4 -47 -13 -59 -21 -11 -7 -24
-10 -29 -6 -4 5 -5 0 -2 -10 4 -11 3 -16 -3 -12 -17 11 -67 -5 -67 -20 0 -8 7
-15 15 -15 9 0 12 -3 9 -6 -4 -4 -19 -2 -34 5 -23 9 -41 7 -102 -12 -41 -13
-71 -26 -65 -29 5 -3 3 -3 -5 -1 -7 2 -19 -1 -25 -5 -13 -10 -108 -38 -118
-34 -5 1 -8 -2 -8 -8 0 -5 -6 -10 -13 -10 -8 0 -26 -13 -40 -30 -29 -32 -35
-78 -15 -98 7 -7 8 -12 3 -12 -6 0 -3 -5 5 -10 12 -8 11 -10 -7 -10 -12 0 -25
5 -29 12 -4 7 -3 8 4 4 13 -8 15 4 6 28 -6 15 -8 15 -19 -1 -12 -15 -12 -14
-8 12 7 33 27 70 53 96 24 24 79 51 90 44 6 -3 10 -1 10 5 0 7 7 10 15 6 8 -3
15 -2 15 3 0 4 19 13 43 19 68 17 234 77 349 125 58 25 109 43 112 39 3 -3 6
-1 6 5 0 6 21 20 48 32 26 11 76 38 112 60 74 45 82 47 73 25z m72 -14 c3 -6
-1 -7 -9 -4 -18 7 -21 14 -7 14 6 0 13 -4 16 -10z m202 -21 c8 -8 17 -8 31 0
49 26 30 7 -47 -46 -106 -75 -154 -105 -221 -139 -30 -15 -64 -35 -74 -43 -18
-15 -18 -15 -8 4 5 10 25 25 44 31 18 6 32 16 31 22 -2 7 4 9 14 5 12 -5 14
-3 8 7 -5 8 -3 11 6 8 19 -7 71 31 65 47 -3 9 2 11 16 7 16 -4 19 -2 13 9 -7
12 -6 12 7 1 12 -10 18 -9 28 3 11 13 10 14 -6 8 -17 -6 -17 -5 -5 10 8 10 21
15 35 11 15 -3 29 3 45 20 22 23 22 25 4 35 -10 6 -13 11 -7 11 5 0 15 -5 21
-11z m704 -6 c13 -16 12 -17 -3 -4 -10 7 -18 15 -18 17 0 8 8 3 21 -13z m-346
-13 c-3 -5 -12 -10 -18 -10 -7 0 -6 4 3 10 19 12 23 12 15 0z m-24 -27 c10
-12 11 -15 1 -9 -16 9 -65 -21 -57 -34 4 -6 1 -10 -5 -10 -21 0 -90 -61 -83
-73 4 -6 0 -8 -10 -4 -8 3 -21 -1 -27 -9 -7 -8 -18 -14 -25 -14 -8 0 -15 -4
-17 -8 -4 -13 -130 -103 -135 -98 -2 2 -15 -6 -28 -18 -13 -12 -51 -35 -84
-51 -34 -17 -61 -33 -61 -37 0 -3 -14 -10 -31 -13 -23 -5 -28 -9 -18 -16 12
-7 11 -9 -1 -9 -13 0 -13 -2 0 -11 12 -9 11 -9 -5 -4 -31 12 -53 8 -81 -14
-15 -12 -33 -21 -41 -21 -8 0 -11 -5 -7 -11 4 -8 -1 -9 -16 -4 -12 4 -20 3
-17 -1 3 -5 -5 -10 -16 -10 -33 -2 -98 -30 -90 -38 4 -4 0 -4 -10 0 -19 7 -24
-11 -4 -20 6 -3 -3 -3 -20 0 -22 4 -33 2 -33 -6 0 -7 -8 -10 -20 -7 -11 3 -20
2 -20 -3 0 -4 -21 -13 -47 -19 -94 -23 -163 -46 -163 -53 0 -4 -7 -5 -15 -2
-8 4 -22 1 -29 -5 -8 -7 -17 -8 -20 -3 -4 6 173 68 224 78 3 0 16 5 30 11 14
6 66 26 115 46 50 19 154 66 232 105 78 38 144 67 147 64 3 -3 6 -1 6 5 0 12
110 79 123 75 4 -1 7 3 7 8 0 6 12 16 28 23 32 14 246 173 282 210 14 14 26
26 26 26 1 1 8 -7 15 -16z m322 -44 c-8 -8 -13 -7 -18 2 -5 8 -4 10 3 5 7 -4
12 -2 12 5 0 7 3 9 7 6 4 -4 2 -12 -4 -18z m-28 -29 c-3 -5 -12 -10 -18 -10
-7 0 -6 4 3 10 19 12 23 12 15 0z m-4995 -134 c128 -133 271 -260 402 -354 47
-35 89 -70 92 -79 14 -36 -22 -72 -64 -64 -21 4 -171 114 -260 190 -181 155
-360 346 -360 385 0 29 35 57 59 48 9 -3 68 -60 131 -126z m5440 104 c11 -11
20 -27 20 -35 0 -20 -115 -149 -233 -262 -109 -103 -370 -303 -398 -303 -24 0
-49 27 -49 54 0 26 18 44 115 111 105 74 257 208 382 338 62 65 119 117 128
117 8 0 24 -9 35 -20z m-5099 -23 c3 -5 9 -8 13 -8 20 3 26 -1 26 -14 0 -8 4
-15 9 -15 4 0 33 -23 62 -51 46 -43 35 -39 -21 8 -8 7 -41 33 -72 58 -32 26
-58 49 -58 52 0 6 31 -17 41 -30z m4574 13 c-9 -14 8 -12 24 3 11 10 12 9 6
-1 -16 -29 -218 -180 -233 -174 -9 3 -13 1 -9 -5 7 -11 -9 -29 -32 -35 -9 -2
-14 7 -16 29 -1 26 1 30 14 24 9 -5 26 -8 38 -7 34 3 225 156 194 156 -7 0 -9
5 -6 10 3 6 11 10 16 10 6 0 7 -4 4 -10z m-825 -15 c-14 -17 -30 -20 -30 -6 0
5 8 12 18 14 9 3 19 5 21 6 2 0 -2 -6 -9 -14z m770 -5 c0 -5 -5 -10 -11 -10
-5 0 -7 5 -4 10 3 6 8 10 11 10 2 0 4 -4 4 -10z m-820 -14 c0 -3 -4 -8 -10
-11 -5 -3 -10 -1 -10 4 0 6 5 11 10 11 6 0 10 -2 10 -4z m505 -16 c-3 -5 -12
-10 -18 -10 -7 0 -6 4 3 10 19 12 23 12 15 0z m-575 -24 c0 -2 -7 -7 -16 -10
-8 -3 -12 -2 -9 4 6 10 25 14 25 6z m49 -16 c-6 -5 -19 -6 -27 -2 -10 3 -13 1
-8 -6 6 -10 -13 -21 -39 -22 -5 -1 -20 -8 -32 -16 -13 -8 -23 -10 -23 -5 0 13
11 19 45 25 16 3 32 12 37 19 4 8 19 15 34 15 17 0 22 -3 13 -8z m790 7 c-2
-2 -20 -14 -39 -26 l-35 -23 28 26 c15 14 33 26 39 26 6 0 9 -1 7 -3z m-1366
-44 c-7 -2 -19 -2 -25 0 -7 3 -2 5 12 5 14 0 19 -2 13 -5z m212 -13 c17 -7 15
-9 -12 -9 -18 -1 -33 4 -33 9 0 12 17 12 45 0z m65 -20 c8 -5 11 -10 5 -10 -5
0 -17 5 -25 10 -8 5 -10 10 -5 10 6 0 17 -5 25 -10z m137 -4 c3 -3 -3 -6 -15
-6 -12 0 -22 -4 -22 -10 0 -5 -5 -10 -11 -10 -6 0 -9 6 -6 14 3 8 1 17 -6 19
-7 2 3 3 21 2 18 -1 35 -5 39 -9z m-3243 -53 c3 -6 -15 2 -40 18 -24 17 -44
32 -44 34 0 8 80 -41 84 -52z m3140 35 c-5 -8 -2 -9 9 -5 9 3 19 2 22 -2 2 -5
-3 -11 -13 -14 -9 -2 -26 -8 -36 -13 -14 -5 -17 -4 -11 5 6 10 2 12 -16 7 -16
-5 -12 0 11 13 42 24 43 24 34 9z m-274 -42 c0 -2 -7 -6 -15 -10 -8 -3 -15 -1
-15 4 0 6 7 10 15 10 8 0 15 -2 15 -4z m85 -18 c19 -9 31 -8 49 1 18 10 29 10
42 2 18 -10 18 -10 -1 -12 -35 -3 -40 -4 -50 -11 -9 -5 -114 -38 -122 -38 -2
0 -1 5 3 11 4 8 0 9 -15 4 -11 -3 -21 -4 -21 -1 0 8 57 36 72 35 7 0 2 -5 -11
-10 -33 -13 -22 -20 22 -12 42 7 47 15 15 31 -31 14 -16 15 17 0z m1057 -3 c0
-5 -17 -19 -38 -30 -22 -11 -51 -28 -66 -38 -21 -15 -31 -16 -45 -7 -16 10
-16 10 4 5 16 -4 26 0 35 14 7 12 19 21 26 21 7 0 11 4 8 8 -3 5 5 8 17 7 30
-2 60 16 44 28 -9 6 -9 8 1 5 8 -2 14 -8 14 -13z m-3892 -51 c0 -2 -9 0 -20 6
-11 6 -20 13 -20 16 0 2 9 0 20 -6 11 -6 20 -13 20 -16z m41 -21 c13 -16 12
-17 -3 -4 -17 13 -22 21 -14 21 2 0 10 -8 17 -17z m2440 -35 c29 3 39 8 35 18
-3 8 1 14 9 14 8 0 15 -4 15 -8 0 -5 7 -9 14 -9 8 0 14 5 13 11 -1 7 24 12 67
13 38 1 67 0 65 -2 -6 -5 -169 -41 -226 -49 l-43 -6 1 32 c2 27 3 28 6 8 4
-23 8 -25 44 -22z m1229 38 c0 -2 -7 -7 -16 -10 -8 -3 -12 -2 -9 4 6 10 25 14
25 6z m10 -41 c-14 -8 -29 -14 -35 -14 -5 0 1 6 15 14 14 8 30 14 35 14 6 0
-1 -6 -15 -14z m-3551 -31 c14 -12 -19 -1 -35 12 -18 14 -18 14 6 3 14 -6 27
-13 29 -15z m3481 -2 c0 -12 -99 -57 -107 -49 -3 4 2 7 13 7 16 0 17 2 4 11
-12 8 -11 9 5 5 11 -3 33 3 50 13 36 23 35 23 35 13z m-1421 -335 l174 -167
-19 -22 c-10 -12 -122 -124 -248 -250 l-229 -230 -251 251 -251 251 35 32 c19
17 131 126 248 241 l213 210 77 -74 c42 -41 155 -150 251 -242z m-1890 247
c14 -12 -19 -1 -35 12 -18 14 -18 14 6 3 14 -6 27 -13 29 -15z m2768 20 c-3
-3 -12 -4 -19 -1 -8 3 -5 6 6 6 11 1 17 -2 13 -5z m350 -36 c-8 -4 -23 -5 -33
-1 -16 6 -16 7 2 13 26 10 52 0 31 -12z m-3077 2 c8 -5 11 -10 5 -10 -5 0 -17
5 -25 10 -8 5 -10 10 -5 10 6 0 17 -5 25 -10z m45 -20 c3 -6 -1 -7 -9 -4 -18
7 -21 14 -7 14 6 0 13 -4 16 -10z m2985 0 c0 -11 -2 -11 -37 -15 -12 -1 -20 1
-17 6 2 4 11 6 19 2 8 -3 15 0 15 6 0 6 5 11 10 11 6 0 10 -4 10 -10z m-690
-19 c0 -13 -23 -20 -95 -27 -36 -4 -65 -11 -65 -15 0 -5 -9 -9 -20 -9 -45 0
-15 17 63 37 94 24 117 27 117 14z m590 -25 c0 -2 -7 -6 -15 -10 -8 -3 -15 -1
-15 4 0 6 7 10 15 10 8 0 15 -2 15 -4z m-60 -19 c-17 -16 -138 -62 -145 -55
-2 2 24 14 58 28 34 13 66 27 72 32 16 14 30 9 15 -5z m-744 -19 c1 -13 5 -34
8 -48 4 -14 -2 -7 -13 15 -24 48 -25 55 -8 55 6 0 13 -10 13 -22z m401 -44
c-3 -3 -12 -4 -19 -1 -8 3 -5 6 6 6 11 1 17 -2 13 -5z m158 -9 c-16 -7 -36
-10 -45 -7 -10 5 -6 8 15 13 49 11 62 8 30 -6z m-57 -15 c9 -4 -4 -12 -35 -20
-75 -19 -90 -21 -58 -6 20 9 24 15 15 18 -8 3 -5 3 8 1 23 -4 31 12 10 21 -7
3 1 3 17 -1 17 -3 36 -9 43 -13z m-445 -62 c-2 -4 -10 -2 -17 5 -8 6 -12 15
-9 19 2 4 10 2 17 -5 8 -6 12 -15 9 -19z m302 12 c-11 -5 -27 -9 -35 -9 -9 0
-8 4 5 9 11 5 27 9 35 9 9 0 8 -4 -5 -9z m-227 -17 c-14 -13 -21 -14 -40 -5
-22 11 -22 11 3 6 15 -3 30 -1 33 5 4 6 10 11 14 11 3 0 -1 -8 -10 -17z m147
6 l30 -1 -35 -8 c-20 -5 -42 -4 -52 1 -25 14 -22 23 5 15 12 -3 36 -6 52 -7z
m-170 -29 c19 -8 19 -9 -2 -9 -12 -1 -25 4 -28 9 -7 12 2 12 30 0z m87 -1
c-18 -5 -39 -6 -47 -2 -9 6 2 9 33 10 45 1 46 1 14 -8z m-1962 -149 c86 -61
35 -203 -66 -187 -45 8 -70 29 -84 73 -10 28 -8 40 7 71 30 62 91 80 143 43z"/>
<path d="M2719 8297 c-47 -32 -67 -90 -50 -147 23 -78 92 -115 171 -91 59 17
90 61 90 125 0 39 -6 61 -21 80 -46 59 -130 74 -190 33z"/>
<path d="M2087 5406 c-4 -10 -1 -13 9 -9 7 3 14 9 14 14 0 14 -17 10 -23 -5z"/>
<path d="M7802 4238 c6 -18 28 -21 28 -4 0 9 -7 16 -16 16 -9 0 -14 -5 -12
-12z"/>
<path d="M2425 2590 c3 -5 8 -10 11 -10 2 0 4 5 4 10 0 6 -5 10 -11 10 -5 0
-7 -4 -4 -10z"/>
<path d="M7026 3083 c-6 -14 -5 -15 5 -6 7 7 10 15 7 18 -3 3 -9 -2 -12 -12z"/>
<path d="M6990 3079 c0 -5 5 -7 10 -4 6 3 10 8 10 11 0 2 -4 4 -10 4 -5 0 -10
-5 -10 -11z"/>
<path d="M6896 2969 c5 -9 53 -8 59 0 2 4 -11 7 -30 7 -18 0 -31 -4 -29 -7z"/>
<path d="M6834 2919 c-7 -13 16 -41 30 -36 19 6 15 43 -5 44 -10 1 -21 -3 -25
-8z m36 -19 c0 -5 -4 -10 -10 -10 -5 0 -10 5 -10 10 0 6 5 10 10 10 6 0 10 -4
10 -10z"/>
<path d="M8166 3673 c-6 -14 -5 -15 5 -6 7 7 10 15 7 18 -3 3 -9 -2 -12 -12z"/>
<path d="M7474 2608 l-19 -23 23 19 c12 11 22 21 22 23 0 8 -8 2 -26 -19z"/>
<path d="M6970 2216 c0 -2 7 -7 16 -10 8 -3 12 -2 9 4 -6 10 -25 14 -25 6z"/>
<path d="M5628 2063 c7 -3 16 -2 19 1 4 3 -2 6 -13 5 -11 0 -14 -3 -6 -6z"/>
</g>
</svg>
